<svg width="181" height="133" viewBox="0 0 181 133" fill="none" xmlns="http://www.w3.org/2000/svg">
<path d="M0 102.02V109.365H181V104.173C181 96.4892 180.491 89.1894 179.492 82.2578H1.33547C0.468878 88.4388 0 95.0138 0 102.02Z" fill="url(#paint0_linear_3168_1483)"/>
<path d="M28.263 24.6607C23.1824 29.9708 18.5136 36.0372 14.4963 42.9623H166.251C163.169 37.7245 159.619 32.8401 155.571 28.3306C151.499 23.7948 147.102 19.8186 142.397 16.3721H37.2651C34.1227 18.8906 31.1376 21.6558 28.263 24.6607Z" fill="url(#paint1_linear_3168_1483)"/>
<path d="M181 115.717H0V133H181V115.717Z" fill="url(#paint2_linear_3168_1483)"/>
<path d="M11.1071 49.313C7.30258 57.1486 4.30657 65.9768 2.38623 75.9031H178.413C176.529 66.2555 173.597 57.399 169.642 49.313H11.1071Z" fill="url(#paint3_linear_3168_1483)"/>
<path d="M132.174 10.0204C119.456 3.35848 104.817 0 88.2249 0C70.8667 0 57.5878 3.60973 46.4981 10.0204H132.174Z" fill="url(#paint4_linear_3168_1483)"/>
<path d="M65.5845 70.6914H58.0893C56.8561 70.697 55.2205 71.5454 55.2217 73.854C55.2224 75.9396 55.2217 83.4831 55.2217 92.0596C55.4698 94.1016 55.8055 94.6042 57.1262 95.6182C58.3826 96.5828 59.4243 96.6316 60.7598 96.6316C61.8677 96.6316 69.7472 96.6316 72.1229 96.5844C70.7638 96.6116 74.3178 96.4098 75.4507 97.3229C77.4207 98.9107 77.2061 102.38 77.2023 106.715C77.194 115.569 77.1729 126.822 77.2023 132.949C84.4804 132.949 101.363 132.999 101.363 132.999C101.363 132.999 101.363 106.332 101.363 90.5607C101.363 90.5607 101.363 84.6864 105.917 84.6534C110.588 84.6199 118.535 84.5673 118.535 84.5673C118.535 84.5673 123.441 84.8185 123.441 79.2891C123.441 73.7597 123.324 55.6627 123.324 55.6627C123.324 55.6627 123.456 52.3962 119.718 52.3962C114.581 52.3962 119.48 52.3962 114.683 52.3962C114.683 52.3962 110.862 52.1367 110.862 55.4664C110.862 58.6106 110.862 68.9207 110.862 68.9207C110.862 68.9207 110.677 71.7802 108.115 71.7802C105.5 71.7802 103.316 71.7802 103.605 71.7802C103.605 71.7802 101.276 71.7602 101.276 68.9927C101.276 66.2492 101.256 39.7039 101.256 39.7039C101.256 39.7039 101.402 35.9321 97.7819 35.9326C92.2204 35.9326 78.2964 35.9326 81.3175 35.9326C81.3175 35.9326 77.2 35.6034 77.2023 39.7086C77.1586 43.537 77.2295 81.2918 77.2023 81.1742C77.2023 81.1742 77.2031 84.5673 75.0982 84.5673C73.0565 84.5673 70.8074 84.5673 70.8074 84.5673C70.8074 84.5673 68.159 84.8248 68.0947 80.6705C68.0827 79.8844 68.0947 73.8384 68.0947 73.8384C68.095 71.5455 66.7521 70.7441 65.5845 70.6914Z" fill="#0D1A4E"/>
<defs>
<linearGradient id="paint0_linear_3168_1483" x1="81.9122" y1="47.3863" x2="93.5588" y2="113.423" gradientUnits="userSpaceOnUse">
<stop stop-color="#3D84E6"/>
<stop offset="1" stop-color="#1254CB"/>
</linearGradient>
<linearGradient id="paint1_linear_3168_1483" x1="90.8344" y1="45.8122" x2="102.481" y2="111.849" gradientUnits="userSpaceOnUse">
<stop stop-color="#3D84E6"/>
<stop offset="1" stop-color="#1254CB"/>
</linearGradient>
<linearGradient id="paint2_linear_3168_1483" x1="78.1544" y1="48.0489" x2="89.8011" y2="114.086" gradientUnits="userSpaceOnUse">
<stop stop-color="#3D84E6"/>
<stop offset="1" stop-color="#1254CB"/>
</linearGradient>
<linearGradient id="paint3_linear_3168_1483" x1="85.678" y1="46.7186" x2="97.3247" y2="112.756" gradientUnits="userSpaceOnUse">
<stop stop-color="#3D84E6"/>
<stop offset="1" stop-color="#1254CB"/>
</linearGradient>
<linearGradient id="paint4_linear_3168_1483" x1="95.0074" y1="45.0756" x2="106.654" y2="111.112" gradientUnits="userSpaceOnUse">
<stop stop-color="#3D84E6"/>
<stop offset="1" stop-color="#1254CB"/>
</linearGradient>
</defs>
</svg>
